<svg width="2867" height="2597" viewBox="0 0 2867 2597" fill="none" xmlns="http://www.w3.org/2000/svg">
<path d="M396.451 2213.82C395.314 2214.24 391.593 2208.14 390.145 2195.63C388.905 2183.33 390.352 2164.1 402.447 2144.25C408.443 2134.43 417.334 2124.71 429.429 2117.48C441.42 2110.34 456.514 2106.1 472.537 2106.93C504.894 2109 536.114 2132.88 548.829 2166.89C552.137 2175.37 553.585 2184.67 553.792 2193.87C553.792 2203.07 551.724 2212.07 548.519 2220.13C542.007 2236.26 530.945 2249.28 518.023 2258.28C492.075 2276.26 460.959 2277.61 439.456 2268.61C417.54 2259.21 405.962 2243.8 400.483 2232.64C395.108 2221.16 395.521 2214.03 396.555 2213.72C398.106 2213.31 400.483 2219.51 407.203 2228.5C410.614 2232.95 415.266 2238.01 421.469 2242.77C427.568 2247.52 435.425 2252.49 444.315 2254.97C462.303 2260.65 487.01 2257.97 507.065 2242.98C516.886 2235.64 525.259 2225.09 529.911 2212.79C534.667 2200.59 534.667 2187.15 529.705 2173.92C519.884 2147.15 495.073 2127.81 471.193 2125.64C446.796 2123.37 425.707 2136.6 414.542 2152.21C402.964 2167.92 399.346 2184.36 398.209 2195.42C397.175 2206.69 398.209 2213.2 396.555 2213.62L396.451 2213.82Z" fill="#231F20"/>
<path d="M94.4857 2042.01C93.5553 2042.32 90.8675 2038.5 89.7304 2030.43C88.6966 2022.47 89.4202 2009.97 97.1735 1996.94C100.998 1990.53 106.788 1984.02 114.748 1979.26C122.604 1974.51 132.529 1971.61 143.176 1972.13C164.679 1973.37 185.147 1989.08 193.521 2011.52C197.863 2022.68 197.863 2036.22 193.211 2046.87C188.869 2057.52 181.529 2066.1 173.052 2071.99C155.995 2083.78 135.526 2084.5 121.467 2078.4C107.098 2072.1 99.8613 2061.86 96.4498 2054.52C93.1417 2046.97 93.6587 2042.32 94.6924 2042.12C95.933 2041.81 97.6904 2045.63 102.136 2051.11C106.477 2056.38 114.438 2063.83 125.499 2067.03C136.56 2070.34 151.757 2068.48 163.955 2059.17C169.848 2054.62 174.913 2048.22 177.704 2040.77C180.599 2033.33 180.496 2025.47 177.498 2017.41C171.502 2001.08 156.305 1989.19 141.936 1987.84C127.153 1986.4 114.231 1994.15 107.201 2003.76C99.8613 2013.38 97.3803 2023.61 96.3465 2030.54C95.4161 2037.57 95.7262 2041.81 94.4857 2042.12V2042.01Z" fill="#231F20"/>
<path d="M116.923 2036.33C116.096 2036.53 114.442 2034.77 113.512 2030.54C112.685 2026.4 112.788 2019.79 116.716 2012.65C120.335 2005.62 129.639 1998.28 141.424 1998.9C153.209 1999.52 164.373 2008 168.922 2020.1C171.3 2026.19 171.3 2033.84 168.715 2039.63C166.337 2045.42 162.306 2050.07 157.654 2053.28C148.35 2059.59 137.288 2059.69 129.742 2056.28C121.989 2052.66 118.474 2047.18 116.923 2043.15C115.476 2039.01 115.993 2036.53 116.923 2036.43C117.854 2036.12 119.094 2037.98 121.472 2040.46C123.746 2042.73 127.881 2046.15 132.947 2047.28C138.115 2048.52 144.938 2047.49 150.314 2043.15C152.898 2041.08 155.069 2038.19 156.31 2034.88C157.447 2031.57 157.447 2028.57 156.103 2024.95C153.415 2017.72 146.592 2012.24 140.493 2011.51C134.084 2010.69 128.191 2013.89 124.676 2018.13C117.337 2027.12 118.784 2036.02 116.82 2036.43L116.923 2036.33Z" fill="#231F20"/>
<path d="M406.173 1884.57C405.552 1884.78 404.312 1883.43 403.692 1880.43C403.071 1877.44 403.175 1872.68 405.966 1867.61C408.55 1862.55 415.27 1857.28 423.85 1857.59C432.431 1858 440.391 1864.1 443.699 1872.89C445.456 1877.23 445.353 1882.81 443.595 1887.05C441.838 1891.29 438.943 1894.6 435.635 1896.87C428.916 1901.42 420.956 1901.52 415.477 1899.04C409.894 1896.35 407.413 1892.43 406.276 1889.53C405.242 1886.53 405.656 1884.78 406.276 1884.67C407.62 1884.16 410.204 1890.25 417.854 1892.22C421.473 1893.05 426.228 1892.22 430.053 1889.22C433.774 1886.12 436.152 1881.16 434.085 1876.4C432.224 1871.23 427.365 1867.51 423.127 1866.99C418.681 1866.48 414.546 1868.55 411.962 1871.65C406.69 1877.95 407.723 1884.36 406.173 1884.57Z" fill="#231F20"/>
<path d="M404.621 1835.05C404.001 1835.26 402.76 1833.91 402.14 1830.91C401.52 1827.92 401.623 1823.16 404.414 1818.1C406.999 1813.03 413.718 1807.76 422.299 1808.07C430.879 1808.48 438.839 1814.58 442.147 1823.37C443.904 1827.71 443.801 1833.29 442.044 1837.53C440.286 1841.77 437.392 1845.08 434.084 1847.35C427.364 1851.9 419.404 1852 413.925 1849.52C408.343 1846.83 405.862 1842.91 404.724 1840.01C403.691 1837.01 404.104 1835.26 404.724 1835.15C406.068 1834.64 408.653 1840.74 416.303 1842.7C419.921 1843.53 424.676 1842.7 428.501 1839.7C432.223 1836.6 434.6 1831.64 432.533 1826.88C430.672 1821.71 425.813 1817.99 421.575 1817.48C417.13 1816.96 412.995 1819.03 410.41 1822.13C405.138 1828.43 406.172 1834.84 404.621 1835.05Z" fill="#231F20"/>
<path d="M119.406 1884.77C118.372 1885.49 114.444 1880.33 118.372 1872.06C120.233 1868.23 125.402 1863.89 132.018 1864.2C138.737 1864.51 144.94 1869.16 147.421 1875.98C148.765 1879.4 148.765 1883.84 147.318 1887.05C145.974 1890.35 143.699 1892.83 141.115 1894.59C135.946 1898 129.743 1898 125.608 1896.04C121.37 1893.87 119.613 1890.87 118.889 1888.6C118.269 1886.32 118.786 1884.98 119.406 1884.77C120.75 1884.36 123.024 1888.29 127.986 1889.22C130.26 1889.63 133.258 1888.91 135.533 1886.94C136.566 1886.01 137.497 1884.77 138.014 1883.32C138.427 1881.98 138.427 1880.95 137.91 1879.4C136.773 1876.29 133.775 1873.92 131.398 1873.5C128.813 1873.09 126.229 1874.12 124.471 1875.98C120.75 1879.91 120.956 1884.25 119.509 1884.67L119.406 1884.77Z" fill="#231F20"/>
<path d="M407.619 2044.8C407.102 2043.67 419.921 2037.05 445.249 2033.02C457.861 2031.16 473.781 2030.12 492.079 2032.3C510.273 2034.47 531.155 2040.15 551.624 2051.83C572.196 2063.31 591.631 2081.09 607.241 2103.94C622.747 2126.68 634.325 2155.83 634.636 2187.57C637.427 2250.94 592.871 2320.61 522.265 2343.25C487.22 2354.73 450.107 2351.83 418.267 2343.25C402.45 2339.33 386.22 2334.26 371.541 2326.51C356.861 2318.86 343.629 2308.73 333.084 2296.84C311.479 2273.06 300.727 2244.01 296.179 2216.82C291.94 2189.33 294.731 2163.17 301.761 2140.74C308.997 2118.41 320.472 2099.9 333.084 2086.36C345.696 2072.72 359.032 2063.72 370.197 2057.52C393.043 2045.53 407.309 2043.77 407.619 2044.8C408.24 2046.46 394.801 2050.9 374.332 2064.34C364.201 2071.17 352.416 2080.57 341.665 2093.8C330.81 2107.04 321.299 2124.3 315.614 2144.87C310.031 2165.45 308.377 2189.33 312.822 2214.03C317.578 2238.43 327.915 2264.07 346.834 2284.12C365.441 2304.69 392.216 2317.1 423.023 2323.92C453.105 2331.78 485.462 2333.74 515.959 2323.92C546.248 2314.41 572.092 2293.84 589.563 2269.24C607.241 2244.63 616.028 2215.58 615.718 2187.88C615.924 2160.07 606.414 2134.33 592.975 2113.34C579.329 2092.25 562.272 2075.4 544.077 2064.34C507.378 2041.6 470.163 2039.84 445.972 2040.98C421.369 2042.43 407.929 2046.25 407.516 2044.8H407.619Z" fill="#231F20"/>
<path d="M357.173 2025.99C358.207 2027.44 343.32 2036.74 323.472 2060.1C313.651 2071.79 303.21 2087.4 294.837 2107.24C286.36 2127.09 280.881 2150.87 279.02 2178.37C276.849 2205.25 278.606 2235.43 289.254 2264.79C294.63 2279.37 302.28 2293.53 312.824 2306.04C323.369 2318.44 336.704 2329.09 351.901 2337.57C382.5 2354.52 420.026 2362.38 458.896 2365.17C478.434 2366.51 498.18 2366.51 517.614 2363.41C536.843 2360.21 555.657 2353.49 573.025 2343.36C607.656 2323.1 634.121 2290.84 646.836 2255.38C659.758 2219.72 660.172 2181.26 651.178 2147.46C642.287 2113.45 623.679 2084.29 601.35 2062.48C578.814 2040.57 552.453 2025.89 527.229 2016.69C501.901 2007.49 477.194 2004.59 455.795 2004.59C434.189 2004.9 415.685 2008.31 400.902 2012.14C371.232 2020.2 356.139 2028.88 355.312 2027.33C354.692 2026.4 368.648 2015.24 398.627 2004.49C413.617 1999.32 432.742 1994.56 455.485 1993.12C478.124 1991.98 504.589 1993.94 532.087 2003.04C559.379 2012.03 588.118 2026.82 613.238 2050.18C638.152 2073.44 659.345 2105.18 669.579 2142.6C680.02 2179.71 680.123 2222.2 665.961 2262.31C651.798 2302.42 622.439 2338.4 583.569 2361.14C564.134 2372.51 542.735 2380.16 521.129 2383.67C499.523 2387.09 478.228 2386.88 457.759 2385.33C416.925 2382.12 376.815 2373.54 342.907 2354.11C326.057 2344.49 310.963 2332.09 299.178 2317.62C287.393 2303.14 279.02 2286.91 273.438 2270.58C262.376 2237.81 261.549 2205.45 264.754 2177.02C267.545 2148.9 274.471 2123.06 284.499 2102.7C294.423 2082.12 306.518 2066.31 317.683 2054.94C340.219 2032.19 356.76 2025.16 357.276 2026.09L357.173 2025.99Z" fill="#231F20"/>
<path d="M321.609 2147.35C321.609 2146.53 326.261 2145.6 334.635 2144.77C338.77 2144.36 343.939 2143.94 349.728 2143.63C352.622 2143.53 355.827 2143.32 359.032 2143.12C360.686 2143.12 362.34 2143.01 364.097 2142.91C367.095 2142.91 370.196 2142.81 373.401 2142.7C374.228 2153.14 375.055 2164.93 376.089 2177.44C376.813 2190.26 377.536 2203.9 378.363 2218.17H377.846C371.644 2218.27 365.648 2218.38 359.652 2218.48C355.31 2218.48 350.968 2218.69 346.73 2218.48C336.909 2217.86 327.502 2217.24 318.611 2216.62C318.611 2210.31 318.611 2204.32 318.611 2198.53C318.611 2194.08 318.611 2189.95 318.715 2186.02C318.818 2178.16 319.025 2171.24 319.335 2165.55C319.852 2154.18 320.679 2147.46 321.713 2147.46C322.746 2147.46 323.78 2153.97 324.917 2165.45C325.434 2171.13 325.951 2178.06 326.468 2185.91C326.675 2189.84 326.985 2193.98 327.192 2198.42C327.398 2202.35 327.709 2209.38 327.812 2207.93H328.122C328.122 2207.93 328.019 2207.93 329.363 2207.93C331.223 2207.93 333.187 2208.04 335.152 2208.14C339.08 2208.24 343.112 2208.45 347.143 2208.66C351.278 2208.86 355.414 2208.55 359.652 2208.45C362.34 2208.45 365.028 2208.35 367.819 2208.24C367.405 2197.7 366.992 2187.57 366.578 2178.16C366.372 2172.58 366.165 2167.2 365.958 2162.03C365.751 2157.18 365.545 2150.46 365.751 2151.28C352.933 2150.66 342.285 2150.15 334.842 2149.73C326.468 2149.11 321.713 2148.39 321.713 2147.56L321.609 2147.35Z" fill="#231F20"/>
<path d="M105.964 1846.52C105.964 1845.69 110.616 1844.76 118.989 1843.94C123.124 1843.52 128.293 1843.11 134.082 1842.8C136.977 1842.7 140.182 1842.49 143.386 1842.28C145.04 1842.28 146.694 1842.18 148.452 1842.08C151.45 1842.08 154.551 1841.97 157.756 1841.87C158.583 1852.31 159.41 1864.1 160.444 1876.6C161.167 1889.42 161.891 1903.07 162.718 1917.34H162.201C155.998 1917.44 150.002 1917.54 144.007 1917.65C139.665 1917.65 135.323 1917.85 131.084 1917.65C121.264 1917.03 111.856 1916.4 102.966 1915.78C102.966 1909.48 102.966 1903.48 102.966 1897.69C102.966 1893.25 102.966 1889.11 103.069 1885.19C103.173 1877.33 103.379 1870.4 103.689 1864.72C104.206 1853.34 105.033 1846.63 106.067 1846.63C107.101 1846.63 108.135 1853.14 109.272 1864.61C109.789 1870.3 110.306 1877.23 110.822 1885.08C111.029 1889.01 111.339 1893.15 111.546 1897.59C111.753 1901.52 112.063 1908.55 112.166 1907.1H112.477C112.477 1907.1 112.373 1907.1 113.717 1907.1C115.578 1907.1 117.542 1907.2 119.506 1907.31C123.434 1907.41 127.466 1907.62 131.498 1907.82C135.633 1908.03 139.768 1907.72 144.007 1907.62C146.694 1907.62 149.382 1907.51 152.173 1907.41C151.76 1896.87 151.346 1886.74 150.933 1877.33C150.726 1871.75 150.519 1866.37 150.313 1861.2C150.106 1856.34 149.899 1849.62 150.106 1850.45C137.287 1849.83 126.639 1849.31 119.196 1848.9C110.822 1848.28 106.067 1847.56 106.067 1846.73L105.964 1846.52Z" fill="#231F20"/>
<path d="M247.902 2091.53C247.282 2091.22 248.729 2086.15 252.865 2076.95C257.103 2067.86 264.236 2054.52 275.918 2039.22C287.496 2023.82 304.346 2006.45 327.399 1991.25C350.246 1975.95 379.088 1962 413.306 1954.55C430.363 1950.83 448.764 1948.77 467.682 1948.56C486.29 1948.25 506.552 1948.77 526.917 1953.11C547.283 1957.35 567.751 1964.69 587.083 1975.44C606.518 1986.39 624.402 1999.73 641.666 2015.44C658.723 2031.26 674.023 2049.87 686.532 2071.06C698.73 2092.25 708.241 2115.72 713.617 2140.63C718.992 2165.44 720.75 2191.6 718.579 2217.65C716.511 2243.6 711.032 2270.06 700.901 2294.98C691.287 2319.99 676.918 2343.77 658.103 2362.79C639.392 2381.92 616.132 2396.18 592.148 2404.76C580.157 2409.21 568.062 2412.52 556.38 2415.41C544.802 2418.41 532.603 2421.2 520.818 2423.06C496.938 2426.89 473.161 2428.13 450.005 2426.78C357.482 2424.09 276.848 2372.09 246.662 2307.69C216.993 2243.29 218.957 2184.57 226.813 2147.15C230.742 2128.23 236.221 2114.27 240.356 2105.07C244.801 2095.97 247.489 2091.43 248.109 2091.74C249.97 2092.46 240.252 2111.58 234.67 2148.59C231.982 2166.99 230.742 2190.05 234.153 2216.2C235.704 2229.23 238.702 2243.08 242.63 2257.66C246.558 2272.03 251.934 2286.81 259.687 2301.18C274.987 2330.02 300.004 2357.11 333.602 2375.82C350.556 2385.33 368.75 2393.49 388.495 2398.87C408.24 2404.45 429.226 2406.93 451.245 2408.07C472.851 2409.21 495.284 2407.76 517.717 2403.94C528.985 2402.07 539.943 2399.39 551.625 2396.39C563.099 2393.39 574.367 2390.29 585.325 2386.15C607.138 2378.09 627.193 2365.69 643.837 2348.63C660.481 2331.67 673.196 2310.79 682.087 2287.53C691.494 2264.48 696.559 2240.29 698.523 2216C700.694 2191.81 699.144 2167.72 694.285 2144.87C689.53 2122.03 680.949 2100.52 669.888 2080.88C658.62 2061.45 644.664 2044.08 628.951 2029.19C613.341 2014.51 595.973 2001.28 578.503 1991.15C560.825 1981.02 542.114 1973.99 523.506 1969.75C504.795 1965.41 486.29 1964.58 467.889 1964.48C449.798 1964.27 432.637 1965.72 416.407 1968.82C384.05 1974.92 356.138 1987.22 333.809 2000.97C311.273 2014.72 294.526 2030.23 282.327 2044.39C258.033 2072.82 249.763 2092.67 248.109 2091.74L247.902 2091.53Z" fill="#231F20"/>
<path d="M220.095 1842.18C219.061 1842.18 217.614 1835.25 217.821 1822.33C218.027 1815.92 218.648 1808.06 220.508 1799.07C222.266 1790.08 225.16 1779.84 230.432 1769.09C235.808 1758.65 243.355 1746.76 257.311 1739.22C264.237 1735.49 273.024 1733.63 281.708 1735.29C290.391 1736.73 298.145 1741.49 304.451 1747.18C316.959 1758.75 324.609 1774.26 329.881 1790.49C335.05 1806.82 337.324 1824.4 337.531 1842.28C337.428 1860.17 335.05 1877.74 329.881 1894.07C324.609 1910.3 317.063 1925.81 304.451 1937.39C298.248 1943.08 290.495 1947.73 281.708 1949.28C273.024 1950.83 264.237 1948.97 257.311 1945.35C243.355 1937.8 235.808 1925.91 230.432 1915.47C225.16 1904.72 222.266 1894.49 220.508 1885.49C218.648 1876.5 218.027 1868.54 217.821 1862.23C217.51 1849.42 219.061 1842.39 220.095 1842.39C221.439 1842.39 222.162 1849.31 224.437 1861.51C226.814 1873.5 230.639 1891.39 241.08 1909.79C246.353 1918.78 253.796 1928.19 263.513 1932.63C273.127 1937.39 284.706 1935.12 293.699 1925.91C302.9 1917.02 309.516 1903.69 313.858 1889.22C318.2 1874.64 320.267 1858.72 320.371 1842.39C320.267 1826.05 318.2 1810.13 313.858 1795.56C309.516 1781.08 302.9 1767.75 293.699 1758.86C284.706 1749.66 273.127 1747.38 263.513 1752.14C253.692 1756.69 246.249 1766.09 241.08 1774.98C230.639 1793.49 226.918 1811.27 224.437 1823.26C222.162 1835.46 221.439 1842.39 220.095 1842.39V1842.18Z" fill="#231F20"/>
<path d="M258.966 1767.54C261.861 1767.65 262.481 1802.79 264.652 1845.8C266.72 1888.91 269.614 1923.85 266.823 1924.26C264.135 1924.68 256.589 1889.94 254.521 1846.32C252.247 1802.69 256.279 1767.34 258.966 1767.54Z" fill="#231F20"/>
<path d="M284.603 1766.3C287.498 1766.41 288.015 1800.94 289.359 1843.32C290.599 1885.71 292.15 1920.13 289.359 1920.44C286.671 1920.75 280.468 1886.43 279.228 1843.53C277.884 1800.63 282.019 1765.99 284.707 1766.2L284.603 1766.3Z" fill="#231F20"/>
<path d="M304.242 1793.49C306.93 1793.18 312.099 1819.23 311.995 1851.9C311.995 1884.57 306.62 1910.62 303.932 1910.31C301.037 1910 301.761 1883.95 301.761 1851.9C301.864 1819.85 301.348 1793.8 304.242 1793.49Z" fill="#231F20"/>
<path d="M239.629 1810.03C242.523 1810.55 240.146 1832.78 242.937 1859.76C245.521 1886.74 252.344 1907.93 249.553 1909.07C247.175 1910.31 235.597 1889.43 232.806 1860.79C229.808 1832.05 237.044 1809.41 239.629 1810.14V1810.03Z" fill="#231F20"/>
<path d="M617.369 2495.21C617.369 2494.18 627.087 2494.39 644.558 2489.94C653.241 2487.67 663.682 2483.74 675.054 2477.43C686.322 2470.82 698.314 2461.51 708.962 2448.49C719.713 2435.57 728.5 2418.61 733.152 2398.87C734.599 2394.01 734.806 2388.74 735.633 2383.57C735.736 2378.19 736.253 2373.13 736.046 2367.23C735.943 2355.76 735.736 2343.87 735.633 2331.57C735.219 2282.26 734.702 2226.12 734.082 2163.99C733.669 2101.86 733.255 2033.95 732.842 1960.96C732.635 1924.47 732.531 1886.74 732.325 1847.87C732.635 1829.26 728.913 1811.27 720.643 1794.63C712.683 1777.88 700.278 1763.1 684.875 1751.93C669.678 1740.56 651.277 1733.32 632.049 1730.84C627.294 1729.91 622.331 1730.22 617.473 1729.81H601.553C590.905 1729.81 580.257 1729.81 569.506 1729.81C526.501 1729.81 482.669 1730.02 438.01 1730.02C348.692 1730.02 256.169 1730.12 161.476 1730.22C139.767 1730.43 118.264 1736.63 100.173 1748.31C82.1856 1759.89 67.4027 1776.54 58.5123 1795.76C55.9279 1800.42 54.584 1805.59 52.6198 1810.44C51.3793 1815.61 49.6219 1820.58 49.105 1825.85C48.0712 1831.02 47.8645 1836.29 47.6577 1841.46C47.3476 1846.73 47.6577 1852.73 47.4509 1858.31C47.4509 1881.05 47.4509 1903.59 47.4509 1925.92C47.2442 2015.23 47.0375 2101.45 46.8307 2183.53C46.7273 2224.57 46.5206 2264.58 46.4172 2303.45C46.4172 2322.88 46.2104 2342.01 46.2104 2360.93C46.2104 2370.65 46.107 2379.12 47.4509 2387.7C47.9678 2392.04 48.6914 2396.18 49.932 2400.31C50.8624 2404.55 52.3097 2408.48 53.7569 2412.51C65.5419 2444.56 91.9031 2469.06 121.572 2480.12C136.562 2485.91 151.655 2487.77 167.679 2487.77C183.909 2487.87 199.829 2487.98 215.335 2488.08C339.491 2489.01 439.974 2490.15 509.444 2491.29C544.178 2491.91 571.16 2492.53 589.354 2493.25C607.652 2493.87 617.266 2494.59 617.266 2495.32C617.266 2496.04 607.652 2496.77 589.354 2497.39C571.056 2498.01 544.075 2498.73 509.444 2499.35C439.974 2500.59 339.491 2501.62 215.335 2502.55C199.829 2502.66 183.909 2502.76 167.679 2502.86C151.242 2503.17 132.84 2501.21 116.093 2494.9C82.289 2482.71 51.9996 2455.21 37.9403 2418.61C36.1828 2414.06 34.4254 2409.51 33.3916 2404.66C31.9444 2399.9 31.014 2395.04 30.3937 2390.18C28.7397 2380.36 28.8431 2370.13 28.7397 2360.93C28.7397 2342.11 28.5329 2322.88 28.5329 2303.45C28.4295 2264.58 28.2228 2224.57 28.1194 2183.53C27.9126 2101.45 27.7059 2015.23 27.4991 1925.92C27.4991 1903.59 27.4991 1881.05 27.4991 1858.31C27.4991 1852.52 27.2924 1847.14 27.6025 1841.04C27.8093 1834.84 28.1194 1828.74 29.3599 1822.64C30.0836 1816.44 32.0478 1810.55 33.495 1804.45C35.666 1798.66 37.4233 1792.56 40.4213 1787.08C50.9658 1764.44 68.2297 1744.9 89.422 1731.15C110.614 1717.3 136.045 1709.96 161.786 1709.75C256.48 1709.75 349.002 1709.86 438.32 1709.96C482.979 1709.96 526.811 1710.17 569.816 1710.17C580.567 1710.17 591.215 1710.17 601.863 1710.17H617.783C623.469 1710.69 629.154 1710.48 634.737 1711.51C657.169 1714.61 678.672 1723.19 696.246 1736.53C732.118 1762.37 752.07 1806.52 750.519 1847.66C750.312 1886.53 750.209 1924.26 750.002 1960.75C749.589 2033.74 749.175 2101.76 748.762 2163.79C748.245 2225.92 747.728 2282.05 747.211 2331.36C747.108 2343.66 746.901 2355.55 746.797 2367.03C746.797 2372.71 746.177 2378.71 745.867 2384.39C744.73 2389.98 744.42 2395.66 742.662 2400.93C737.08 2422.23 727.052 2440.11 715.061 2453.45C703.172 2466.89 690.043 2476.3 677.948 2482.6C665.646 2488.7 654.585 2492.11 645.385 2493.87C636.287 2495.52 629.154 2496.04 624.399 2495.73C619.644 2495.63 617.266 2495.42 617.266 2495.01L617.369 2495.21Z" fill="#231F20"/>
<path d="M654.688 1722.47C657.169 1722.78 657.686 1731.88 661.821 1745.11C665.956 1758.35 674.433 1775.4 688.182 1792.05C701.725 1808.48 716.611 1823.06 726.122 1833.4C735.529 1843.53 743.593 1845.49 743.696 1847.97C743.696 1849.11 741.215 1850.35 736.459 1849.94C731.704 1849.63 725.191 1847.25 718.575 1842.81C705.963 1833.81 690.147 1821.1 674.95 1802.8C659.857 1784.6 651.38 1763.31 650.036 1747.49C648.589 1731.57 652.621 1722.16 654.688 1722.47Z" fill="#231F20"/>
<path d="M784.534 1857.48C779.055 1859.96 769.234 1844.97 759 1829.57C753.728 1821.92 748.662 1815.61 744.734 1810.86C740.805 1806 737.911 1802.48 738.945 1799.69C739.875 1797.11 745.147 1795.97 752.797 1798.76C760.344 1801.45 769.337 1808.27 775.954 1817.89C782.466 1827.5 785.671 1837.22 786.808 1844.25C787.945 1851.38 787.222 1856.24 784.637 1857.38L784.534 1857.48Z" fill="#231F20"/>
<path d="M797.251 1907.31C798.285 1907 805.314 1924.57 813.378 1957.76C821.234 1990.94 829.401 2040.04 829.711 2101.45C830.125 2162.65 821.751 2236.25 796.631 2313.68C793.323 2323.3 790.118 2333.12 786.5 2342.84C782.881 2352.45 779.47 2361.96 776.782 2371.58C774.094 2381.09 772.44 2390.8 772.44 2400.21C772.44 2405.17 772.957 2409 774.301 2412.82C775.542 2416.54 777.609 2418.82 779.057 2419.34C780.4 2420.06 782.778 2419.96 786.913 2418.2C790.841 2416.54 795.7 2413.34 800.042 2410.96C808.829 2405.38 817.099 2398.87 824.853 2391.63C840.256 2376.95 853.075 2359.17 862.689 2339.42C882.124 2299.83 885.845 2254.97 877.678 2214.03C869.718 2172.78 851.007 2135.77 827.23 2104.86C815.342 2089.15 802.42 2073.02 794.046 2054.31C785.776 2035.81 781.848 2016.47 780.297 1998.07C779.47 1988.87 779.263 1979.78 779.367 1970.99C779.987 1962.3 780.607 1953.72 781.124 1945.35C781.744 1936.98 782.158 1928.71 783.088 1920.85L783.605 1915.89C783.605 1915.27 783.605 1914.75 783.502 1914.23C783.295 1913.72 782.778 1913.51 782.261 1913.3L777.816 1911.65C770.786 1909.38 761.069 1904.52 756.52 1895.94C754.143 1891.6 753.109 1887.15 753.005 1882.29C753.005 1877.43 754.659 1872.88 756.83 1869.06C761.689 1861.72 768.305 1857.17 774.921 1854.28C781.641 1851.38 788.567 1849.93 795.597 1850.04C802.937 1850.55 808.519 1852.31 814.308 1854.38C819.891 1856.55 825.059 1859.24 829.711 1862.65C834.26 1866.06 838.395 1870.3 840.669 1875.67C843.047 1881.05 842.84 1887.05 841.289 1891.8C839.635 1896.25 837.051 1900.69 833.536 1903.28C830.228 1906.07 826.507 1907.72 823.095 1908.76C816.169 1910.82 810.276 1910.41 805.728 1909.89C796.631 1908.76 792.185 1907.2 792.289 1906.58C792.289 1905.76 797.147 1905.86 805.934 1905.76C810.276 1905.55 815.652 1905.24 821.131 1902.97C826.61 1900.69 831.986 1896.45 833.64 1889.42C838.498 1875.47 815.962 1862.65 795.39 1861.51C785.569 1861.72 773.061 1867.09 767.892 1875.78C765.617 1879.91 765.824 1884.67 768.305 1889.11C769.546 1891.08 771.407 1892.94 773.784 1894.39C776.058 1895.94 778.953 1896.76 782.571 1898.11C784.329 1898.73 785.983 1899.14 788.877 1900.38C791.979 1901.52 794.666 1903.38 796.424 1906.17C798.181 1908.86 798.595 1912.37 798.491 1915.58C798.491 1918.78 798.285 1920.13 798.181 1922.4C797.561 1930.36 797.354 1938.22 796.941 1946.38C796.527 1954.55 796.217 1962.82 795.804 1971.3C795.804 1979.67 796.321 1988.15 797.148 1996.73C799.008 2013.79 802.833 2031.05 810.38 2047.07C817.72 2063.1 829.711 2077.78 842.117 2093.7C867.547 2125.85 888.43 2165.75 897.32 2210.41C901.662 2232.74 903.212 2256.1 900.731 2279.67C898.25 2303.24 891.531 2326.71 881.09 2348.63C870.442 2370.54 856.073 2390.29 838.809 2406.72C830.021 2414.79 820.614 2422.13 810.69 2428.43C805.418 2431.33 800.972 2434.32 794.77 2437.01C791.668 2438.36 788.154 2439.49 783.915 2439.91C779.78 2440.42 774.921 2439.7 770.786 2437.84C762.103 2433.81 757.761 2426.16 755.59 2419.75C753.212 2413.24 752.695 2406.31 752.695 2400.52C752.695 2388.53 754.97 2377.16 758.071 2366.51C761.172 2355.86 764.997 2345.94 768.615 2336.32C772.337 2326.81 775.438 2317.41 778.85 2308C804.281 2233.05 813.895 2161.41 815.342 2101.55C816.789 2041.49 811.103 1992.9 805.624 1959.62C800.042 1926.33 795.7 1908.03 797.354 1907.62L797.251 1907.31Z" fill="#231F20"/>
<path d="M608.581 1717.3C606.41 1717.3 603.722 1680.71 600.724 1618.16C599.484 1586.84 597.933 1549.11 596.279 1506.1C595.039 1465.89 593.591 1420.92 592.041 1372.33C530.221 1372.33 462.509 1372.44 391.592 1372.54C320.055 1373.68 251.826 1374.82 189.49 1375.75C189.697 1424.02 189.903 1468.79 190.11 1508.69C189.903 1551.49 189.8 1589.12 189.697 1620.23C189.076 1682.57 187.629 1719.06 185.458 1719.06C183.287 1719.06 180.703 1682.67 178.118 1620.44C176.981 1589.32 175.637 1551.69 174.19 1508.9C173.053 1463.31 171.709 1412.24 170.262 1357.14C238.491 1355.59 313.129 1353.83 391.489 1351.97C469.022 1352.49 543.143 1352.9 610.752 1353.31C611.372 1408.62 611.889 1459.89 612.303 1505.69C612.303 1548.7 612.303 1586.53 612.406 1617.85C611.992 1680.5 610.752 1717.2 608.684 1717.3H608.581Z" fill="#231F20"/>
<path d="M240.638 1720.09C244.406 1720.02 246.301 1650.79 244.871 1565.45C243.441 1480.1 239.227 1410.97 235.46 1411.03C231.692 1411.1 229.797 1480.33 231.227 1565.67C232.657 1651.02 236.871 1720.15 240.638 1720.09Z" fill="#231F20"/>
<path d="M557.933 1715.44C556.072 1715.44 553.384 1681.12 550.593 1625.4C549.352 1597.59 548.009 1564.3 546.355 1527.5C545.217 1492.66 543.977 1454.31 542.633 1413.99C500.042 1414.41 459.518 1414.92 422.715 1415.23C385.19 1415.23 351.489 1415.23 323.163 1415.23C266.512 1414.82 231.364 1413.58 231.364 1411.72C231.364 1409.86 266.409 1407.69 323.06 1405.62C351.385 1404.79 385.086 1403.86 422.612 1402.73C460.655 1402 502.523 1401.17 546.458 1400.35C549.663 1400.35 552.867 1400.35 555.969 1400.24C557.002 1445.32 558.036 1488.22 558.967 1527.19C559.483 1564.1 559.897 1597.38 560.207 1625.19C560.517 1681.02 559.794 1715.44 557.933 1715.44Z" fill="#231F20"/>
<path d="M2866.13 856.791C2866.13 856.791 2860.03 857.825 2848.25 858.548C2836.36 859.169 2818.79 860.099 2795.84 861.339C2749.94 863.2 2682.43 865.888 2596.32 869.403C2426.06 875.192 2182.09 883.462 1886.94 893.49C1892.73 1016.61 1898.94 1148.93 1905.55 1288.8C1908.86 1434.98 1912.27 1588.91 1915.89 1748.83C1765.89 1748.83 1610.51 1748.94 1451.42 1749.04C1286.53 1753.17 1125.67 1757.31 971.022 1761.13C971.125 1834.22 971.229 1905.97 971.435 1976.06C971.435 2012.75 971.435 2048.94 971.539 2084.7C971.745 2120.47 972.676 2155.83 973.193 2190.77C975.674 2333.33 978.051 2468.34 980.222 2593.94C830.015 2594.87 692.834 2595.7 571.676 2596.42C512.337 2596.42 456.824 2597.46 405.652 2596.63C354.48 2595.7 307.547 2594.77 265.162 2593.94C180.497 2591.98 114.128 2590.43 69.056 2589.39C46.5198 2588.57 29.2557 2587.94 17.5741 2587.53C5.99588 2587.01 0 2586.5 0 2586.08C0 2585.67 5.99587 2585.26 17.6775 2585.05C29.3591 2584.95 46.6231 2584.74 69.1593 2584.43C114.335 2584.43 180.6 2584.43 265.266 2584.43C307.65 2584.64 354.584 2584.84 405.755 2585.05C456.927 2585.26 512.337 2583.6 571.676 2582.98C687.872 2581.33 819.264 2579.47 963.268 2577.5C960.581 2457.07 957.686 2327.74 954.585 2191.08C953.965 2156.14 952.827 2120.78 952.517 2085.01C952.311 2049.14 952.207 2012.96 952 1976.26C951.69 1899.76 951.38 1821.51 951.07 1741.8C1112.13 1737.56 1279.5 1733.22 1451.21 1728.67C1603.38 1728.67 1751.93 1728.78 1895.42 1728.88C1892.42 1576.19 1889.53 1429.19 1886.74 1289.53C1880.64 1143.77 1874.75 1005.65 1869.37 877.26C2021.85 873.435 2161.2 869.92 2284.33 866.818C2404.97 864.131 2509.79 861.753 2596.01 859.789C2682.22 858.238 2749.73 857.101 2795.63 856.274C2818.58 856.171 2836.26 856.067 2848.04 855.964C2859.93 855.964 2866.03 856.274 2866.03 856.687L2866.13 856.791Z" fill="#231F20"/>
<path d="M1376.16 992.524C1375.33 992.834 1372.54 988.389 1367.89 979.498C1365.62 975.053 1362.93 969.574 1359.62 963.062C1356.62 956.859 1352.18 947.348 1350.63 944.764C1347.84 946.108 1335.43 950.966 1324.99 954.998C1314.03 959.237 1302.14 963.785 1289.43 968.644C1263.89 978.258 1234.95 989.113 1203.21 1001C1187.29 1006.89 1170.75 1012.99 1153.49 1019.3C1136.43 1026.02 1118.75 1032.94 1100.56 1040.18C1067.17 1053.21 1031.92 1067.06 995.32 1081.33L998.317 1088.66C1000.7 1094.35 1002.97 1100.04 1005.35 1105.83C1057.14 1231.02 1106.45 1343.28 1144.39 1423.5C1162.89 1463.92 1177.47 1496.69 1187.19 1519.64C1196.91 1542.59 1201.66 1555.52 1200.42 1556.14C1199.18 1556.76 1191.94 1544.97 1180.05 1523.16C1168.17 1501.35 1151.52 1469.4 1131.26 1429.71C1089.91 1350.83 1038.32 1239.08 986.429 1113.58C980.433 1098.8 974.437 1084.12 968.545 1069.75C1012.07 1053.21 1054.04 1037.18 1093.63 1022.09C1112.03 1015.27 1129.81 1008.55 1146.97 1002.14C1164.34 996.142 1181.19 990.456 1197.22 984.977C1229.47 974.123 1258.83 964.302 1284.78 955.618C1312.48 946.625 1336.36 938.871 1355.9 932.565C1361.69 947.142 1363.76 953.034 1366.34 960.167C1368.72 966.99 1370.79 972.779 1372.44 977.534C1375.54 987.045 1376.78 992.214 1376.06 992.524H1376.16Z" fill="#231F20"/>
<path d="M1214.89 1583.64C1218.2 1581.88 1230.5 1598.94 1242.18 1621.58L1243.42 1623.96C1243.42 1623.96 1243.42 1623.96 1243.42 1624.16C1243.42 1624.16 1243.42 1624.16 1243.42 1624.37C1243.42 1624.37 1243.53 1624.58 1243.73 1624.58C1245.8 1623.44 1247.77 1622.4 1249.73 1621.37C1253.56 1619.3 1257.07 1617.65 1260.07 1616.41C1266.06 1613.93 1270.1 1613 1271.03 1614.44C1271.96 1615.79 1269.48 1619.1 1264.82 1623.65C1262.45 1625.92 1259.55 1628.4 1256.14 1631.09C1254.38 1632.43 1252.52 1633.88 1250.66 1635.33C1246.73 1638.01 1242.7 1640.81 1238.57 1643.7C1235.88 1638.63 1233.09 1633.47 1230.3 1627.99C1218.51 1605.24 1211.79 1585.5 1215.1 1583.74L1214.89 1583.64Z" fill="#231F20"/>
<path d="M1229.57 1403.04C1229.88 1403.76 1226.06 1406.45 1218.51 1410.9C1214.68 1413.07 1210.03 1415.75 1204.66 1418.86C1201.87 1420.41 1198.97 1421.96 1195.87 1423.71C1191.53 1425.99 1186.98 1428.37 1182.12 1430.95C1176.54 1419.17 1170.03 1405.52 1162.89 1390.32C1156.48 1376.47 1149.35 1361.28 1141.8 1344.94C1126.92 1312.07 1109.55 1274.96 1092.6 1234.95C1082.78 1211.17 1073.37 1188.22 1064.37 1166.62C1054.86 1143.05 1045.87 1120.82 1037.7 1100.56C1048.04 1096.22 1057.86 1092.08 1067.27 1088.05C1075.02 1084.84 1082.47 1081.85 1089.39 1078.95C1103.35 1073.47 1115.65 1069.13 1125.78 1065.51C1146.04 1058.38 1157.83 1054.87 1158.24 1056C1158.65 1057.14 1147.8 1062.83 1128.26 1071.72C1118.54 1076.16 1106.66 1081.43 1093.01 1087.64C1081.02 1093.32 1067.48 1099.63 1052.69 1106.55L1053 1107.07V1107.38L1053.62 1108.41C1054.66 1110.79 1055.69 1113.17 1056.72 1115.55C1058.79 1120.41 1060.96 1125.26 1063.13 1130.33C1067.48 1140.36 1071.92 1150.8 1076.47 1161.55C1085.57 1183.16 1095.18 1205.9 1105.11 1229.57C1122.37 1269.37 1138.6 1306.9 1152.87 1339.98C1159.9 1356.52 1166.41 1372.03 1172.3 1386.09C1175.19 1393.12 1177.99 1399.83 1180.57 1406.14C1181.81 1409.35 1183.15 1412.34 1184.29 1415.34L1185.12 1417.41L1185.43 1418.34L1186.05 1420.2C1186.77 1419.89 1187.5 1419.58 1188.22 1419.37C1189.77 1418.75 1191.22 1418.03 1192.67 1417.41C1195.97 1415.96 1199.07 1414.62 1201.87 1413.38C1207.66 1411 1212.62 1408.93 1216.65 1407.17C1224.71 1403.97 1229.26 1402.52 1229.57 1403.25V1403.04Z" fill="#231F20"/>
<path d="M1228.33 1405.93C1222.75 1406.97 1195.77 1290.77 1167.96 1146.25C1164.14 1126.09 1160.52 1106.45 1157 1087.63C1153.07 1065.72 1149.25 1044.73 1145.73 1024.99C1154.11 1023.13 1162.38 1021.27 1170.44 1019.4C1175.71 1018.27 1180.88 1017.13 1185.95 1016.1C1196.08 1014.03 1205.69 1011.96 1214.79 1010.1C1233.09 1007 1249.21 1004.73 1262.55 1002.97C1289.22 999.453 1304.73 998.419 1305.04 1000.38C1305.35 1002.35 1290.46 1007.21 1264.62 1013.82C1251.7 1016.92 1235.98 1020.75 1218.1 1025.09C1209.21 1027.47 1199.8 1030.05 1189.88 1032.74C1184.91 1034.08 1179.85 1035.43 1174.68 1036.77C1172.51 1037.39 1170.23 1037.91 1167.96 1038.53L1167.13 1038.84L1167.34 1039.46V1039.77L1168.17 1042.97C1169.1 1047.32 1170.03 1051.76 1170.96 1056.21C1172.82 1065.2 1174.68 1074.4 1176.54 1083.71C1180.26 1102.52 1184.09 1122.06 1188.02 1142.22C1215.82 1286.63 1233.81 1404.69 1228.23 1405.73L1228.33 1405.93Z" fill="#231F20"/>
<path d="M1247.56 1303.17C1244.05 1303.79 1227.4 1229.77 1212 1137.46C1209.93 1124.02 1207.97 1110.89 1206 1098.38C1203.94 1083.91 1201.87 1070.06 1200.01 1057.03C1208.79 1055.27 1217.27 1053.62 1225.23 1051.97C1231.54 1050.83 1237.43 1049.69 1243.01 1048.66C1254.28 1046.59 1264.1 1044.94 1272.27 1043.7C1288.6 1041.21 1298.22 1040.39 1298.42 1041.63C1298.73 1042.97 1289.64 1046.18 1273.82 1050.72C1265.86 1053 1256.24 1055.58 1245.18 1058.48C1239.7 1059.93 1233.81 1061.37 1227.61 1062.92C1224.51 1063.65 1221.3 1064.47 1218.1 1065.3L1215.62 1065.92L1214.38 1066.23H1214.17L1213.65 1066.54L1213.86 1067.06V1067.27L1214.27 1069.44C1214.79 1072.33 1215.31 1075.23 1215.82 1078.22C1216.86 1084.12 1217.89 1090.21 1218.93 1096.42C1220.99 1108.93 1223.06 1121.95 1225.23 1135.29C1240.53 1227.4 1251.18 1302.55 1247.35 1303.17H1247.56Z" fill="#231F20"/>
<path d="M1644.73 1044.83C1642.87 1045.14 1639.46 1036.35 1634.91 1020.74C1632.64 1012.89 1630.05 1003.38 1627.37 992.316C1626.02 986.837 1624.57 980.944 1623.13 974.742C1622.4 971.64 1621.68 968.436 1620.96 965.231C1620.54 963.784 1620.44 963.99 1620.23 963.37L1619.41 963.68H1618.99L1618.78 963.887L1617.54 964.094C1613.93 964.714 1610.1 965.231 1606.38 965.851C1598.73 966.989 1590.87 968.229 1582.81 969.469C1566.58 971.744 1549.42 974.225 1531.74 976.706C1505.69 980.014 1480.78 983.115 1458.24 986.01C1435.7 989.008 1415.24 991.489 1398.07 993.246C1363.75 996.761 1342.25 997.485 1341.73 994.797C1341.22 992.006 1361.89 986.217 1395.8 978.98C1412.75 975.362 1432.91 971.434 1455.45 967.402C1477.99 963.37 1502.9 960.062 1528.95 956.444C1546.73 954.17 1564 951.999 1580.23 949.931C1599.45 947.76 1617.65 945.693 1634.29 943.832C1635.33 950.035 1636.46 956.134 1637.39 962.026C1637.91 965.334 1638.43 968.539 1638.84 971.641C1639.77 977.947 1640.6 983.942 1641.42 989.525C1642.98 1000.79 1644.11 1010.61 1644.94 1018.68C1646.49 1034.91 1646.59 1044.42 1644.73 1044.73V1044.83Z" fill="#231F20"/>
<path d="M1673.37 1590.36C1672.85 1588.5 1678.13 1585.29 1687.74 1581.26C1692.49 1579.19 1698.39 1577.02 1705.21 1574.64C1708.62 1573.51 1712.24 1572.27 1716.06 1570.92L1718.96 1569.99C1718.96 1569.99 1719.37 1569.78 1719.58 1569.68C1719.89 1569.47 1720.1 1569.27 1720.2 1569.16L1719.79 1568.34C1719.79 1568.34 1719.79 1568.34 1719.58 1567.82L1718.96 1564.51C1718.13 1560.17 1717.2 1555.62 1716.37 1550.97C1714.72 1541.67 1713.07 1531.84 1711.31 1521.71C1701.7 1458.76 1699.11 1406.96 1704.59 1406.24C1710.28 1405.52 1721.85 1455.76 1731.47 1518.51C1733.02 1528.64 1734.47 1538.36 1735.91 1547.76C1737.57 1559.96 1739.12 1571.54 1740.56 1582.29C1736.53 1583.22 1732.6 1584.15 1728.68 1584.98C1726.82 1585.39 1725.06 1585.81 1723.3 1586.22L1720.3 1586.84C1716.37 1587.56 1712.55 1588.19 1709.03 1588.81C1702.01 1589.94 1695.7 1590.87 1690.53 1591.39C1680.19 1592.53 1673.99 1592.22 1673.47 1590.36H1673.37Z" fill="#231F20"/>
<path d="M1266.06 1594.8C1267.92 1594.39 1271.02 1599.76 1274.64 1609.59C1276.5 1614.44 1278.47 1620.44 1280.53 1627.26C1281.57 1630.67 1282.6 1634.29 1283.74 1638.12L1284.56 1641.01C1284.56 1641.01 1284.77 1641.32 1284.87 1641.53C1285.08 1641.74 1285.19 1641.94 1285.39 1642.15L1286.12 1641.74L1286.43 1641.53L1289.22 1641.12C1293.35 1640.49 1297.59 1639.77 1301.93 1639.15C1310.72 1637.91 1319.82 1636.67 1329.22 1635.43C1390.22 1627.78 1440.15 1626.23 1440.87 1631.81C1441.59 1637.39 1392.7 1648.15 1331.81 1655.79C1322.3 1656.83 1313.2 1657.86 1304.41 1658.9C1292.73 1660.03 1281.57 1661.17 1271.23 1662.1C1270.51 1658.07 1269.78 1654.04 1269.06 1650.11C1268.75 1648.25 1268.44 1646.39 1268.02 1644.53L1267.61 1641.53C1267.09 1637.6 1266.58 1633.78 1266.06 1630.26C1265.13 1623.13 1264.61 1616.93 1264.3 1611.76C1263.68 1601.42 1264.3 1595.22 1266.16 1594.8H1266.06Z" fill="#231F20"/>
<path d="M1195.46 1580.23C1195.66 1579.4 1207.34 1580.95 1229.05 1584.67C1250.76 1588.5 1282.71 1594.18 1323.23 1602.14C1343.49 1606.18 1365.92 1610.62 1390.32 1615.48C1414.82 1619.72 1441.39 1624.37 1469.82 1629.33C1498.25 1634.09 1528.43 1639.98 1560.48 1644.74C1589.84 1649.39 1620.75 1654.25 1653.11 1659.41C1666.24 1577.75 1680.71 1487.81 1696.22 1391.67C1712.14 1292.74 1730.33 1187.19 1748.63 1078.74C1731.57 1074.82 1714.72 1070.79 1697.97 1066.96C1678.02 1062.62 1658.28 1058.38 1638.74 1054.04C1599.45 1045.87 1560.79 1038.43 1522.85 1031.81C1484.91 1025.09 1447.59 1019.2 1411.2 1013.93C1393.01 1011.45 1375.02 1008.97 1357.34 1006.59C1342.46 1004.73 1327.78 1002.87 1313.31 1001.11C1296.97 1085.26 1281.88 1162.79 1268.44 1231.85C1254.17 1303.28 1241.77 1365.93 1231.43 1417.62C1220.99 1469.3 1212.41 1510.03 1206.31 1537.84C1200.21 1565.65 1196.39 1580.43 1195.46 1580.23C1194.42 1580.02 1196.28 1564.82 1200.62 1536.71C1204.97 1508.59 1211.79 1467.55 1220.68 1415.55C1229.78 1363.65 1240.84 1300.8 1253.45 1229.06C1266.89 1154.83 1281.98 1071.51 1298.32 981.054C1318.37 983.328 1338.84 985.602 1359.52 987.98C1377.3 990.254 1395.39 992.632 1413.79 995.009C1450.38 1000.07 1487.91 1005.76 1526.16 1012.27C1564.41 1018.79 1603.28 1026.13 1642.77 1034.29C1662.51 1038.32 1682.36 1042.67 1702.42 1047.11C1712.45 1049.39 1722.47 1051.66 1732.5 1054.04C1745.63 1057.14 1758.76 1060.34 1771.99 1063.45C1770.96 1069.44 1769.92 1075.54 1768.89 1081.64C1731.16 1302.87 1696.11 1508.38 1667.06 1678.95C1629.02 1672.34 1592.53 1666.03 1557.9 1660.03C1525.85 1654.66 1495.66 1648.25 1467.34 1642.87C1439.01 1637.29 1412.44 1632.23 1387.94 1627.16C1363.65 1621.58 1341.32 1616.41 1321.16 1611.76C1280.95 1602.35 1249.32 1595.11 1227.92 1589.74C1206.52 1584.36 1195.15 1581.16 1195.35 1580.33L1195.46 1580.23Z" fill="#231F20"/>
<path d="M1694.77 1116.27C1694.56 1116.89 1685.88 1115.13 1669.54 1111.51C1653.21 1107.89 1629.43 1102.72 1599.04 1096C1568.65 1089.49 1531.74 1082.05 1489.25 1074.5C1468.06 1070.78 1445.42 1066.95 1421.54 1063.34C1409.55 1061.58 1397.35 1059.82 1384.74 1057.96C1373.99 1056.51 1362.93 1055.07 1351.76 1053.52C1332.53 1152.96 1310.2 1268.64 1286.32 1392.08C1347.83 1402.52 1407.38 1412.54 1463.82 1422.06C1520.47 1431.88 1573.92 1441.08 1623.33 1449.66C1633.67 1400.86 1643.08 1356.1 1651.45 1316.4C1655.9 1295.73 1660.03 1276.4 1663.86 1258.51C1667.47 1240.63 1670.89 1224.19 1673.88 1209.3C1679.98 1179.53 1684.94 1156.27 1688.56 1140.35C1692.18 1124.43 1694.35 1116.06 1694.97 1116.16C1695.59 1116.27 1694.56 1124.95 1692.08 1140.97C1689.6 1157.1 1685.77 1180.67 1680.6 1210.55C1678.02 1225.54 1675.12 1242.08 1672.02 1260.06C1668.61 1278.05 1664.89 1297.49 1660.96 1318.26C1652.59 1361.37 1643.08 1410.06 1632.74 1463.1C1526.88 1445.63 1402.93 1425.05 1270.51 1403.14C1271.23 1399.52 1271.95 1395.9 1272.68 1392.28C1298.21 1263.99 1322.09 1143.66 1342.66 1040.18C1357.65 1042.35 1372.44 1044.52 1386.81 1046.59C1399.42 1048.66 1411.62 1050.62 1423.61 1052.48C1447.49 1056.51 1470.13 1060.65 1491.42 1064.89C1533.91 1073.26 1570.71 1081.63 1601 1089.08C1631.19 1096.52 1654.86 1103.03 1670.89 1107.79C1686.91 1112.54 1695.39 1115.44 1695.18 1116.06L1694.77 1116.27Z" fill="#231F20"/>
<path d="M1595.11 1036.88C1593.97 1037.08 1592.01 1033.47 1589.63 1026.85C1588.39 1023.54 1587.15 1019.51 1585.7 1014.75C1584.36 1010.52 1582.4 1002.76 1582.4 1004L1581.57 1004.31C1581.57 1004.31 1580.74 1004.52 1579.81 1004.62L1577.12 1005.04C1573.51 1005.55 1569.78 1005.97 1565.96 1006.48C1558.21 1007.41 1550.04 1008.34 1541.56 1009.28C1494.11 1014.13 1455.45 1015.06 1455.04 1011.24C1454.62 1007.41 1492.77 1000.49 1540.22 995.629C1548.7 994.906 1556.97 994.079 1564.62 993.458C1574.23 992.735 1583.22 992.114 1591.49 991.494C1593.97 1004.52 1594.18 1007.52 1594.9 1012.79C1595.53 1017.65 1595.94 1021.89 1596.15 1025.4C1596.66 1032.43 1596.35 1036.57 1595.11 1036.77V1036.88Z" fill="#231F20"/>
<path d="M1462.48 1348.97C1459.37 1347.32 1495.25 1282.08 1557.27 1215.3C1561.2 1211.17 1565.03 1207.14 1568.85 1203.1L1570.09 1201.86H1570.2C1570.2 1201.86 1570.2 1201.76 1570.09 1201.66L1568.54 1201.24L1564.82 1200.42C1559.86 1199.28 1555 1198.14 1550.14 1197.11C1531.12 1192.66 1513.96 1188.53 1499.69 1184.91C1471.06 1177.57 1453.48 1172.09 1453.9 1170.23C1454.31 1168.37 1472.5 1170.54 1501.66 1175.5C1516.23 1177.98 1533.6 1181.19 1552.72 1184.91C1565.44 1187.49 1578.78 1190.18 1592.63 1192.97L1596.56 1193.8C1596.66 1194.42 1595.01 1195.56 1594.28 1196.49L1588.7 1202.17C1585.39 1205.59 1581.98 1209.1 1578.57 1212.62C1574.85 1216.54 1571.02 1220.68 1567.2 1224.71C1506.1 1290.35 1465.68 1351.24 1462.37 1349.07L1462.48 1348.97Z" fill="#231F20"/>
<path d="M1553.35 1280.12C1552.63 1283.84 1536.6 1283.84 1517.48 1280.22C1498.35 1276.6 1483.47 1270.71 1484.09 1266.99C1484.81 1263.27 1500.84 1263.27 1519.96 1266.88C1539.08 1270.5 1553.97 1276.4 1553.35 1280.12Z" fill="#231F20"/>
<path d="M2579.98 533.838C2579.98 533.114 2582.88 533.114 2588.56 533.838C2594.04 534.975 2602.11 538.179 2610.48 545.106C2618.75 552.032 2627.43 562.163 2634.05 576.015C2637.36 582.942 2639.94 590.902 2641.08 599.999C2642.11 608.889 2641.49 619.951 2634.36 629.668C2627.64 638.559 2618.13 644.038 2608.41 648.483C2598.59 652.825 2588.77 655.823 2578.43 659.131C2557.96 666.057 2535.53 672.053 2511.86 677.635C2464.41 688.8 2410.96 695.933 2354.62 697.07C2298.28 697.484 2244.32 691.695 2196.87 679.6C2185.08 676.395 2173.4 673.707 2162.44 669.779C2151.38 666.264 2140.73 662.646 2130.71 658.511C2120.58 654.479 2110.76 651.067 2101.35 645.588C2091.94 640.213 2083.15 633.08 2078.09 622.742C2073.02 612.404 2073.64 601.239 2076.43 592.452C2079.23 583.562 2083.77 576.119 2089.15 570.226C2099.8 558.545 2111.48 552.239 2121.09 548C2140.63 539.833 2152.62 540.247 2152.73 541.281C2153.14 543.038 2141.87 545.416 2124.71 555.133C2116.34 560.095 2106.21 567.022 2098.04 577.566C2090.29 587.49 2084.29 603.824 2091.11 616.229C2098.14 628.945 2116.75 635.974 2136.81 642.694C2146.63 646.415 2157.07 649.62 2167.92 652.721C2178.57 656.236 2189.94 658.51 2201.42 661.405C2247.63 672.156 2299.83 677.118 2354.62 676.808C2409.41 675.671 2461.51 669.365 2508.14 659.441C2531.4 654.479 2553.42 649.103 2573.78 643.107C2594.15 637.318 2613.69 632.149 2623.3 620.778C2627.43 615.919 2628.88 608.372 2628.36 601.239C2627.95 594.003 2626.19 586.973 2623.71 580.564C2618.85 567.849 2611.82 557.925 2605.31 550.998C2591.87 536.732 2579.78 536.008 2580.19 534.044L2579.98 533.838Z" fill="#231F20"/>
<path d="M2627.13 568.471C2627.75 570.022 2599.94 583.771 2551.97 598.244C2504.11 612.51 2435.57 626.466 2358.86 626.983C2282.26 628.017 2213.31 615.715 2165.24 602.276C2116.96 588.94 2088.84 575.708 2089.46 574.157C2090.19 572.193 2119.34 582.014 2167.51 592.868C2215.69 603.723 2283.4 614.267 2358.66 613.234C2433.92 612.82 2501.42 600.518 2549.39 588.837C2597.35 576.948 2626.3 566.404 2627.02 568.368L2627.13 568.471Z" fill="#231F20"/>
<path d="M2231.92 640.426C2233.16 643.01 2229.02 647.455 2223.75 651.591C2218.38 655.726 2213.1 658.517 2210.83 656.759C2208.66 655.002 2211.04 648.489 2217.45 643.527C2223.85 638.565 2230.78 637.841 2231.92 640.426Z" fill="#231F20"/>
<path d="M2249.18 641.454C2250.11 644.142 2245.56 648.174 2240.29 652.619C2235.02 656.961 2230.16 660.682 2227.68 659.338C2225.19 657.994 2226.85 650.448 2233.78 644.762C2240.6 639.076 2248.35 638.766 2249.18 641.454Z" fill="#231F20"/>
<path d="M2277.91 650.038C2278.54 652.829 2271.3 656.758 2262.51 660.789C2253.72 664.718 2245.97 667.612 2244.32 665.338C2242.66 663.167 2248.35 655.931 2258.27 651.486C2268.2 646.937 2277.29 647.35 2277.91 650.038Z" fill="#231F20"/>
<path d="M2410.35 629.877C2412 632.254 2406.32 638.87 2398.77 645.9C2391.22 652.826 2384.19 657.995 2381.92 656.134C2379.75 654.377 2383.57 645.9 2391.84 638.353C2400.01 630.807 2408.8 627.602 2410.35 629.877Z" fill="#231F20"/>
<path d="M2440.32 625.327C2441.98 627.704 2432.26 637.112 2420.06 647.966C2407.86 658.821 2397.42 667.401 2395.25 665.54C2393.18 663.783 2400.52 651.688 2413.34 640.316C2426.06 628.945 2438.88 622.949 2440.43 625.327H2440.32Z" fill="#231F20"/>
<path d="M2462.96 622.951C2464.61 625.329 2452.52 636.907 2437.74 651.07C2422.95 665.233 2410.86 676.811 2408.58 675.053C2406.41 673.399 2415.3 658.41 2430.71 643.73C2446.01 628.947 2461.41 620.677 2462.96 622.951Z" fill="#231F20"/>
<path d="M2489.43 624.503C2491.39 626.571 2480.74 639.7 2466.48 654.69C2452.21 669.576 2439.6 680.844 2437.43 678.983C2435.26 677.122 2444.56 662.753 2459.14 647.66C2473.61 632.464 2487.57 622.539 2489.43 624.607V624.503Z" fill="#231F20"/>
<path d="M2523.23 612.404C2525.09 614.679 2513.93 626.67 2501.21 641.97C2488.39 657.167 2478.47 670.296 2475.99 668.848C2473.61 667.504 2479.92 651.481 2493.36 635.354C2506.79 619.227 2521.47 610.233 2523.23 612.404Z" fill="#231F20"/>
<path d="M2561.48 603.518C2563.24 605.896 2550.32 618.198 2536.16 634.531C2521.79 650.762 2511.24 665.131 2508.76 663.787C2506.38 662.547 2513.31 645.076 2528.51 627.812C2543.6 610.548 2559.93 601.244 2561.59 603.518H2561.48Z" fill="#231F20"/>
<path d="M2584.95 598.246C2586.81 600.417 2576.68 611.789 2565.2 626.262C2553.62 640.631 2544.73 652.933 2542.15 651.589C2539.67 650.348 2544.94 635.152 2557.14 619.852C2569.34 604.553 2583.09 596.075 2584.84 598.246H2584.95Z" fill="#231F20"/>
<path d="M2604.17 598.348C2605.93 600.726 2597.97 609.306 2589.49 620.368C2580.91 631.429 2574.5 641.147 2571.82 640.113C2569.23 639.183 2571.82 626.467 2581.43 614.165C2590.94 601.76 2602.62 596.074 2604.17 598.348Z" fill="#231F20"/>
<path d="M2616.58 605.996C2617.72 608.684 2612.45 613.439 2607.8 620.055C2602.94 626.465 2600.04 632.978 2597.15 632.771C2594.36 632.771 2592.91 623.054 2599.53 614.06C2606.14 605.066 2615.76 603.412 2616.58 606.099V605.996Z" fill="#231F20"/>
<path d="M2633.43 584.702C2633.43 583.565 2652.76 582.118 2687.29 586.873C2695.87 588.114 2705.48 589.767 2715.82 592.145C2726.16 594.523 2737.63 597.314 2749.31 603C2755.31 605.791 2760.79 609.409 2766.37 613.234C2771.95 617.163 2777.64 621.918 2782.6 627.604C2787.56 633.393 2791.91 639.905 2795.01 647.762C2797.8 655.102 2799.87 662.959 2801 671.125C2803.07 687.562 2801.93 704.723 2797.28 722.09L2795.73 727.156C2795.11 728.913 2795.01 731.084 2792.84 731.498L2784.67 735.426C2780.74 737.287 2776.81 739.148 2772.78 741.009C2764.72 744.627 2756.55 748.348 2748.18 751.863C2714.58 766.129 2677.67 779.465 2638.18 790.733C2598.59 801.898 2556.31 811.202 2511.86 817.197C2489.63 820.299 2466.99 822.573 2444.04 824.227C2421.2 825.984 2397.83 827.639 2374.16 828.466C2279.26 832.497 2188.29 820.919 2108.89 799.623C2069.09 788.975 2032.19 776.053 1998.38 762.097C1981.43 755.171 1965.41 747.831 1950.21 740.388L1944.52 737.597L1941.42 736.046C1939.87 735.219 1938.01 734.702 1936.77 733.462L1934.08 728.81L1932.53 725.709C1931.6 723.641 1930.67 721.573 1929.95 719.506C1926.85 711.132 1925.19 702.449 1925.09 693.972C1924.88 685.495 1926.12 677.225 1928.6 669.575C1929.84 665.75 1931.29 662.028 1932.95 658.513C1933.77 656.756 1934.7 655.102 1935.63 653.345L1937.08 650.864C1937.7 649.726 1938.53 648.486 1939.66 647.659C1950.42 637.838 1961.06 629.878 1971.61 623.158C1992.8 609.616 2012.96 601.656 2029.81 596.797C2046.66 591.939 2060.2 590.181 2069.3 589.458C2078.5 588.837 2083.26 589.251 2083.36 589.871C2083.57 591.628 2064.23 592.869 2032.29 604.344C2016.37 610.236 1997.56 618.92 1977.91 632.669C1968.2 639.492 1958.17 647.659 1948.76 656.963C1948.45 657.17 1948.35 657.376 1948.14 657.79L1947 659.857C1946.28 661.305 1945.56 662.752 1944.94 664.199C1943.59 667.197 1942.56 670.298 1941.63 673.4C1939.87 679.809 1939.04 686.529 1939.35 693.455C1939.66 700.381 1941.22 707.307 1943.9 714.027C1944.63 715.681 1945.35 717.335 1946.18 718.989L1947.42 721.367L1947.83 721.987C1950.73 723.331 1953.72 724.675 1956.72 726.122C1971.92 733.048 1987.84 739.871 2004.59 746.384C2037.98 759.513 2074.47 771.608 2113.55 781.429C2191.59 801.381 2280.29 812.029 2373.33 808.1C2396.59 807.273 2419.65 805.722 2442.39 804.068C2465.13 802.414 2487.36 800.347 2509.07 797.452C2552.59 791.767 2594.04 783.083 2633.02 772.642C2671.89 762.097 2708.27 749.692 2741.56 736.356C2749.94 733.048 2758 729.637 2765.96 726.225C2769.89 724.468 2773.82 722.711 2777.74 721.057L2781.15 719.506C2781.15 719.506 2781.57 718.782 2781.88 717.955C2786.43 702.966 2787.87 687.356 2786.43 673.193C2785.7 666.06 2784.15 659.237 2781.88 652.828C2779.91 646.935 2776.4 641.249 2772.47 636.391C2764.61 626.777 2753.66 619.23 2743.94 613.648C2733.81 608.169 2723.16 604.964 2713.24 602.07C2703.21 599.278 2694.01 597.004 2685.74 595.247C2652.35 588.217 2633.22 586.873 2633.33 585.219L2633.43 584.702Z" fill="#231F20"/>
<path d="M2788.09 649.004C2788.5 649.831 2777.64 655.517 2757.69 665.028C2747.67 669.577 2735.57 675.986 2720.99 681.775C2706.42 687.668 2689.67 693.974 2670.86 700.28C2595.91 725.4 2487.47 748.97 2366.2 750.004C2306.04 750.728 2248.25 750.004 2196.05 742.871C2143.84 736.048 2097.73 723.229 2060.93 708.24C2024.03 693.25 1995.91 677.433 1977.3 665.441C1958.69 653.346 1949.28 645.489 1949.8 644.766C1950.32 643.939 1960.76 650.348 1979.99 660.893C1999.21 671.437 2027.64 685.703 2064.34 699.246C2100.94 712.788 2146.22 724.366 2197.6 730.466C2248.87 736.772 2306.04 737.185 2366.1 736.462C2485.81 735.428 2593.01 713.719 2667.96 691.182C2686.78 685.6 2703.63 680.018 2718.31 674.745C2733.09 669.68 2745.29 664.097 2755.63 660.272C2776.09 652.312 2787.67 648.281 2788.09 649.108V649.004Z" fill="#231F20"/>
<path d="M2548.35 696.455C2545.98 698.109 2540.5 694.49 2534.19 690.355C2527.99 686.117 2522.41 682.396 2523.13 679.604C2523.75 676.917 2531.92 676.503 2539.88 681.879C2547.84 687.151 2550.63 695.007 2548.35 696.558V696.455Z" fill="#231F20"/>
<path d="M2570.89 687.765C2568.62 689.626 2563.04 686.318 2556.52 682.493C2550.11 678.668 2544.43 675.36 2544.94 672.466C2545.36 669.675 2553.52 668.847 2561.69 673.603C2569.96 678.358 2573.06 686.008 2570.89 687.662V687.765Z" fill="#231F20"/>
<path d="M2597.56 681.669C2594.87 682.702 2590.53 678.05 2584.64 674.225C2578.85 670.194 2573.06 667.816 2572.96 664.922C2572.65 662.13 2581.74 659.856 2590.32 665.749C2599.01 671.641 2600.15 680.842 2597.46 681.669H2597.56Z" fill="#231F20"/>
<path d="M2624.85 667.403C2622.58 669.16 2616.89 665.749 2609.96 662.751C2603.14 659.649 2596.73 657.789 2596.53 654.894C2596.11 652.103 2604.69 649.208 2614.1 653.447C2623.51 657.582 2627.13 665.852 2624.85 667.403Z" fill="#231F20"/>
<path d="M2649.14 655.931C2646.35 656.551 2642.63 652.933 2636.43 650.348C2630.23 647.66 2623.51 644.766 2624.13 641.768C2624.64 639.184 2631.67 637.219 2640.77 641.044C2645.32 643.112 2648.63 646.73 2649.87 649.935C2651.11 653.139 2650.49 655.517 2649.14 655.931Z" fill="#231F20"/>
<path d="M2665.17 638.664C2663.31 640.835 2657.83 639.284 2651.63 638.044C2645.42 636.596 2639.84 635.666 2639.12 632.875C2638.29 630.187 2645.11 626.155 2653.9 628.12C2662.69 630.084 2667.13 636.7 2665.17 638.767V638.664Z" fill="#231F20"/>
<path d="M2668.06 623.16C2665.79 624.918 2660.72 622.127 2654.83 619.852C2649.04 617.371 2643.46 615.717 2643.15 612.822C2642.63 610.135 2650.18 606.827 2658.76 610.445C2667.34 614.063 2670.34 621.713 2668.06 623.264V623.16Z" fill="#231F20"/>
<path d="M2153.14 557.306C2153.14 556.376 2163.68 555.342 2183.74 553.998C2203.69 552.654 2233.05 551.104 2270.58 549.45C2308 548.003 2353.59 545.418 2406 544.591C2455.83 543.557 2512.06 542.524 2573.68 541.283C2571.2 466.955 2568.51 385.08 2565.72 297.623C2563.24 210.269 2560.55 117.333 2557.76 20.9856C2483.64 22.4328 2411.48 23.7769 2342.53 25.0174C2273.47 26.8782 2207.52 28.6357 2145.59 30.2898C2147.56 106.479 2149.31 176.568 2150.97 239.008C2152.62 304.136 2153.55 361.303 2154.17 408.443C2154.79 455.583 2155.1 492.799 2155 518.23C2154.9 543.661 2154.28 557.306 2153.35 557.306C2152.31 557.306 2150.97 543.764 2149.21 518.333C2147.45 492.903 2145.49 455.79 2143.21 408.753C2141.15 361.613 2138.56 304.653 2135.77 239.525C2133.08 171.606 2129.98 95.314 2126.67 12.5089C2194.28 10.2346 2266.44 7.7535 2342.01 5.0657C2417.58 3.41166 2496.56 1.75741 2577.71 0V0.620238C2580.4 103.791 2582.88 203.343 2585.26 297.003C2587.43 390.662 2589.39 478.43 2591.15 558.03C2523.23 558.134 2461.2 558.237 2406.21 558.34C2353.9 557.927 2308.31 559.167 2270.89 559.167C2233.46 559.374 2204 559.374 2184.05 559.167C2163.99 558.857 2153.35 558.237 2153.35 557.41L2153.14 557.306Z" fill="#231F20"/>
<path d="M2191.08 80.115C2191.08 79.4947 2199.15 78.6677 2214.24 77.5305C2229.33 76.3934 2251.56 75.1529 2279.88 73.7056C2308.21 72.3617 2342.53 70.3975 2381.92 69.157C2423.06 67.8131 2469.48 66.2624 2520.03 64.6084C2521.27 116.297 2522.72 172.534 2524.16 232.08C2525.92 290.901 2527.88 352.927 2529.85 417.125L2530.06 422.5C2469.37 423.741 2410.65 424.981 2354.62 426.118C2298.7 426.945 2245.66 427.773 2196.35 428.496C2195.01 375.257 2193.77 326.359 2192.74 282.941C2191.91 241.28 2191.18 204.891 2190.67 174.809C2190.25 144.829 2190.05 121.156 2190.05 105.029C2190.05 88.9021 2190.46 80.2185 2191.08 80.2185C2191.7 80.2185 2192.63 88.7989 2193.77 104.926C2194.91 121.053 2196.15 144.622 2197.7 174.602C2199.04 204.581 2200.7 240.97 2202.56 282.631C2204.11 322.534 2205.97 367.4 2207.93 416.298C2299.11 414.23 2404.14 411.749 2516 409.165C2514.34 347.862 2512.69 288.627 2511.14 232.39C2510.21 176.98 2509.38 124.671 2508.66 76.6002C2414.17 78.2542 2335.4 79.5982 2280.19 80.5286C2251.87 80.9421 2229.64 81.1488 2214.45 81.1488C2199.25 81.1488 2191.19 80.7352 2191.19 80.115H2191.08Z" fill="#231F20"/>
<path d="M2371.17 307.448C2367.45 307.448 2364.35 258.757 2364.35 198.695C2364.35 177.709 2364.66 185.256 2364.76 182.361C2364.14 182.672 2365.9 180.914 2357.11 189.391C2350.6 195.077 2344.08 199.005 2338.5 201.486C2327.13 206.552 2319.79 206.758 2319.48 205.518C2319.07 204.07 2325.48 201.383 2334.68 194.87C2339.33 191.665 2344.5 187.324 2349.77 181.741C2352.56 178.433 2353.8 177.503 2359.8 168.819C2364.45 160.962 2370.86 146.903 2377.37 133.464C2377.37 135.738 2377.58 137.185 2377.58 140.493C2377.58 143.595 2377.58 146.8 2377.68 150.004C2377.68 156.517 2377.78 163.237 2377.89 170.059C2377.89 179.26 2377.89 188.874 2377.99 198.695C2377.99 258.757 2374.89 307.448 2371.17 307.448Z" fill="#231F20"/>
<path d="M2408.17 310.549C2408.17 314.27 2390.91 317.371 2369.61 317.371C2348.32 317.371 2331.05 314.27 2331.05 310.549C2331.05 306.827 2348.32 303.726 2369.61 303.726C2390.91 303.726 2408.17 306.827 2408.17 310.549Z" fill="#231F20"/>
<path d="M2450.04 568.573C2450.45 571.261 2410.96 578.911 2361.44 580.668C2312.03 582.529 2272.02 577.774 2272.23 575.086C2272.44 572.191 2312.13 572.295 2361.03 570.434C2409.93 568.676 2449.63 565.678 2449.94 568.573H2450.04Z" fill="#231F20"/>
<path d="M2459.45 578.807C2460.17 581.392 2424.3 592.453 2378.51 595.347C2332.71 598.449 2295.7 592.246 2296.11 589.558C2296.42 586.56 2333.02 588.214 2377.89 585.113C2422.75 582.219 2458.83 575.809 2459.55 578.807H2459.45Z" fill="#231F20"/>
<path d="M2418.82 599.902C2419.24 602.693 2399.39 607.966 2374.27 609.723C2349.15 611.481 2328.78 608.793 2328.78 606.105C2328.78 603.21 2348.94 601.246 2373.54 599.592C2398.15 597.938 2418.31 597.214 2418.82 600.006V599.902Z" fill="#231F20"/>
<path d="M264.44 1581.67C265.164 1581.67 265.991 1584.46 267.335 1589.43C268.782 1594.08 270.85 1601.94 277.363 1605.55C283.875 1609.17 295.04 1607.41 301.966 1599.56C305.378 1595.73 307.549 1590.67 307.445 1585.19C307.445 1579.71 305.274 1573.92 301.243 1569.78C297.935 1566.37 293.489 1564.2 288.837 1563.58C286.356 1563.27 284.392 1563.27 281.704 1563.58C276.742 1564.62 269.299 1568.96 264.027 1571.44C266.094 1565.55 269.713 1558 270.746 1552.73C271.367 1549.42 271.47 1547.35 271.47 1544.66C271.47 1541.98 271.263 1540.01 270.54 1537.01C269.506 1532.78 267.025 1527.61 265.474 1523.78C270.23 1524.82 274.675 1525.75 278.913 1526.57C281.601 1527.09 284.082 1527.61 286.46 1528.02C290.698 1528.64 294.316 1529.26 297.314 1529.67C303.31 1530.5 306.722 1531.02 306.825 1531.85C306.825 1532.57 303.414 1533.5 297.211 1533.91C294.11 1534.12 290.285 1534.22 285.839 1534.02C283.875 1533.91 281.808 1533.81 279.637 1533.6C278.81 1533.6 278.086 1533.6 277.879 1533.71C278.293 1534.43 278.603 1534.84 278.81 1535.57C279.43 1537.63 280.05 1541.15 280.257 1544.15C280.464 1547.15 280.257 1550.87 279.947 1553.45C279.947 1553.76 279.947 1553.97 279.947 1553.97L280.36 1553.66C283.048 1553.14 286.77 1552.93 290.078 1553.45C296.797 1554.28 303.62 1557.28 308.583 1562.65C314.475 1568.85 317.473 1577.12 317.37 1585.08C317.37 1593.15 313.751 1600.8 308.789 1605.86C298.658 1616.41 283.048 1618.06 273.538 1611.55C268.782 1608.24 266.301 1603.69 265.061 1599.87C263.82 1595.94 263.51 1592.63 263.303 1589.94C263.096 1584.57 263.717 1581.67 264.337 1581.57L264.44 1581.67Z" fill="#231F20"/>
<path d="M336.392 1537.94C336.392 1537.94 336.702 1534.64 341.665 1531.53C344.146 1530.09 348.591 1529.57 352.416 1531.64C356.137 1533.6 359.445 1536.81 361.926 1541.05C366.889 1549.32 369.783 1560.07 370.817 1572.16C371.334 1578.26 371.127 1584.67 369.887 1591.39C368.543 1598.01 366.372 1605.55 360.169 1611.45C357.274 1614.24 353.243 1616.72 348.384 1617.13C343.525 1617.54 339.183 1615.58 336.082 1613.31C329.983 1608.86 326.158 1602.04 324.401 1596.04C320.782 1583.74 321.506 1572.68 323.057 1563.68C324.711 1554.69 327.502 1547.76 330.396 1543.42C333.291 1539.08 335.979 1537.53 336.392 1538.05C337.013 1538.56 335.565 1540.84 334.015 1545.28C332.464 1549.73 330.913 1556.35 330.293 1564.72C329.673 1572.99 329.983 1583.33 333.394 1593.15C335.152 1598.11 337.84 1602.35 341.975 1605.24C346.006 1608.03 349.211 1607.72 353.139 1604.11C356.861 1600.69 358.825 1595.11 360.066 1589.63C361.203 1584.05 361.616 1578.26 361.41 1572.78C361.099 1561.82 359.032 1551.9 355.62 1544.77C354.07 1541.25 351.795 1538.46 349.521 1536.81C347.35 1535.26 345.179 1534.95 343.112 1535.46C339.08 1536.6 336.909 1538.77 336.392 1538.15V1537.94Z" fill="#231F20"/>
<path d="M385.6 1539.28C385.6 1539.28 385.91 1535.98 390.873 1532.87C393.354 1531.43 397.799 1530.91 401.624 1532.98C405.345 1534.94 408.653 1538.15 411.134 1542.39C416.097 1550.66 418.991 1561.41 420.025 1573.5C420.542 1579.6 420.335 1586.01 419.094 1592.73C417.751 1599.35 415.58 1606.89 409.377 1612.79C406.483 1615.58 402.451 1618.06 397.592 1618.47C392.733 1618.88 388.391 1616.92 385.29 1614.65C379.191 1610.2 375.366 1603.38 373.609 1597.38C369.99 1585.08 370.714 1574.02 372.265 1565.02C373.919 1556.03 376.71 1549.1 379.604 1544.76C382.499 1540.42 385.187 1538.87 385.6 1539.39C386.221 1539.9 384.773 1542.18 383.223 1546.62C381.672 1551.07 380.121 1557.69 379.501 1566.06C378.881 1574.33 379.191 1584.67 382.602 1594.49C384.36 1599.45 387.048 1603.69 391.183 1606.58C395.214 1609.37 398.419 1609.06 402.347 1605.45C406.069 1602.03 408.033 1596.45 409.274 1590.97C410.411 1585.39 410.824 1579.6 410.618 1574.12C410.307 1563.16 408.24 1553.24 404.828 1546.11C403.278 1542.59 401.004 1539.8 398.729 1538.15C396.558 1536.6 394.387 1536.29 392.32 1536.8C388.288 1537.94 386.117 1540.11 385.6 1539.49V1539.28Z" fill="#231F20"/>
<path d="M435.739 1540.74C435.739 1540.74 436.049 1537.43 441.011 1534.33C443.492 1532.88 447.937 1532.36 451.762 1534.43C455.484 1536.4 458.792 1539.6 461.273 1543.84C466.235 1552.11 469.13 1562.86 470.164 1574.96C470.68 1581.05 470.474 1587.46 469.233 1594.18C467.889 1600.8 465.718 1608.35 459.516 1614.24C456.621 1617.03 452.589 1619.51 447.731 1619.92C442.872 1620.34 438.53 1618.37 435.429 1616.1C429.33 1611.65 425.505 1604.83 423.747 1598.84C420.129 1586.53 420.853 1575.47 422.403 1566.48C424.057 1557.48 426.849 1550.56 429.743 1546.22C432.638 1541.87 435.325 1540.32 435.739 1540.84C436.359 1541.36 434.912 1543.63 433.361 1548.08C431.811 1552.52 430.26 1559.14 429.64 1567.51C429.019 1575.78 429.33 1586.12 432.741 1595.94C434.498 1600.9 437.186 1605.14 441.321 1608.04C445.353 1610.83 448.558 1610.52 452.486 1606.9C456.208 1603.49 458.172 1597.91 459.412 1592.43C460.549 1586.84 460.963 1581.05 460.756 1575.58C460.446 1564.62 458.379 1554.69 454.967 1547.56C453.416 1544.05 451.142 1541.25 448.868 1539.6C446.697 1538.05 444.526 1537.74 442.458 1538.26C438.427 1539.39 436.256 1541.56 435.739 1540.94V1540.74Z" fill="#231F20"/>
<path d="M531.982 1571.02C531.982 1573.81 521.541 1576.5 508.515 1576.81C495.489 1577.23 484.842 1575.26 484.738 1572.37C484.738 1569.58 495.179 1566.89 508.205 1566.58C521.23 1566.16 531.878 1568.13 531.982 1571.02Z" fill="#231F20"/>
<path d="M509.345 1598.83C506.554 1598.83 503.97 1586.84 503.66 1571.95C503.35 1557.07 505.417 1544.97 508.208 1544.87C511 1544.77 513.584 1556.86 513.894 1571.75C514.204 1586.63 512.137 1598.73 509.345 1598.83Z" fill="#231F20"/>
</svg>
