<svg width="1728" height="284" viewBox="0 0 1728 284" fill="none" xmlns="http://www.w3.org/2000/svg">
<path d="M-23 87.638C-9.70694 90.5821 17.0576 102.448 34.9229 113.622C51.1036 123.742 70.5867 126.268 88.452 139.628C105.054 152.043 128.577 153.033 155.274 158.252C216.781 170.276 235.635 173.82 253.5 181.292C270.873 188.558 289.164 193.179 309.259 211.714C324.227 225.518 323.422 248.136 334.552 265.265C346.15 283.115 416.563 283.911 458.695 275.034C478.942 270.769 494.359 258.663 515.926 249.006C535.73 240.138 556.809 228.955 578.377 221.483C596.852 215.083 614.799 206.651 643.772 176.987C668.734 151.429 666.901 124.93 672.12 101.132C676.867 79.4856 669.934 60.9181 664.001 52.0188C658.068 43.1196 650.619 35.6256 641.72 30.4288C633.389 25.5639 622.382 25.1874 612.725 28.1315C592.642 34.2538 601.506 63.7729 603.714 75.6609C607.236 94.6217 641.564 93.5262 661.637 103.206C693.825 118.728 712.936 130.729 730.801 140.386C748.088 149.731 778.241 160.438 802.173 167.909C821.487 173.939 842.298 179.797 860.899 185.752C883.583 193.015 904.748 197.64 1055.14 197.685C1119.49 197.704 1145.63 182.831 1167.93 173.173C1179.35 168.231 1190.28 163.515 1198.44 153.88C1206.83 143.987 1209.64 132.29 1211.87 117.503C1215.83 91.2253 1206.74 62.4793 1192.67 39.4841C1177.86 15.2824 1157.67 5.87232 1145.07 3.64194C1138.42 2.46446 1131 2.88361 1125 5.09168C1119 7.29976 1114.58 11.7159 1112.31 18.407C1102.96 45.9114 1129.21 85.8537 1150.11 113.6C1164.53 132.735 1193.18 148.483 1210.33 169.337C1232.75 196.599 1257.15 205.045 1280.19 212.517C1317.83 224.725 1370.09 219.944 1407.97 225.163C1475.17 234.425 1493.57 224.494 1515.14 213.32C1537.32 201.828 1564.94 191.752 1586.51 185.797C1605.36 180.593 1622.93 170.965 1646.71 156.111C1680.7 134.872 1694.3 114.492 1708.47 97.3624C1712.19 93.6154 1716.61 90.6713 1721.09 87.6826C1725.57 84.6939 1729.99 81.7498 1734.54 78.7165" stroke="#F8F5F6" stroke-width="6" stroke-linecap="round"/>
</svg>
