<svg width="1327" height="271" viewBox="0 0 1327 271" fill="none" xmlns="http://www.w3.org/2000/svg">
<path d="M216.81 248.278C190.588 248.278 166.725 244.413 166.388 244.362C73.4032 219.435 3.29491 235.543 2.5946 235.698L1.99805 233.182C2.69835 233.001 73.4032 216.738 166.933 241.82C167.27 241.872 212.479 249.16 246.768 243.532C247.598 243.506 311.351 241.742 342.787 195.261C343.358 194.249 405.763 84.7393 410.354 52.2131C410.509 51.6684 420.936 14.9143 415.723 3.24219C410.976 5.26535 391.549 14.0324 378.217 27.7795C375.65 30.4252 373.419 33.1487 371.603 35.8722L371.396 36.1056C369.866 37.5322 333.579 70.8884 299.991 70.0325L300.069 67.4387C331.634 68.2946 367.298 36.339 369.528 34.3159C371.422 31.5146 373.704 28.7133 376.35 25.9898C391.938 9.90825 415.593 0.492762 415.826 0.414949L416.838 0.0258789L417.409 0.959646C424.334 12.3464 413.336 51.1496 412.869 52.8097C408.227 85.6471 347.534 192.174 344.966 196.688C312.726 244.362 247.649 246.151 246.975 246.151C237.378 247.734 226.9 248.304 216.784 248.304L216.81 248.278Z" fill="black"/>
<path d="M416.812 242.546C413.83 242.546 410.873 242.235 407.994 241.586C385.558 236.58 375.105 214.04 374.664 213.08C367.635 202.109 363.46 164.654 362.915 159.726C360.581 157.366 355.341 148.988 363.978 89.2006C368.44 58.3085 374.509 28.4798 374.587 28.1685L377.128 28.6873C370.411 61.5767 355.108 148.962 365.068 158.17L365.431 158.507L365.483 159C365.535 159.415 369.84 200.708 376.973 211.861C377.154 212.25 387.451 234.35 408.616 239.07C423.971 242.494 441.271 236.113 460.024 220.084C460.672 219.565 521.184 171.502 541.337 127.952C541.726 127.252 575.652 67.1793 565.874 44.2242L565.77 43.7573C565.77 43.7573 565.303 32.7077 556.899 26.4048C550.337 21.4765 540.715 20.5947 528.317 23.7332C528.083 23.8369 486.843 41.2932 490.448 61.3692V61.5507V61.7323C490.448 61.836 489.359 71.9519 495.739 76.906C500.901 80.9005 509.486 80.667 521.288 76.1797L522.221 78.592C509.512 83.4164 500.045 83.5461 494.131 78.9292C487.05 73.4044 487.699 63.2108 487.854 61.6285C484.145 39.5813 525.723 21.9953 527.513 21.269C540.896 17.8452 551.271 18.9087 558.482 24.3297C567.222 30.918 568.234 41.5785 568.364 43.3941C578.349 67.6461 545.072 126.603 543.645 129.093C523.285 173.11 462.28 221.562 461.684 222.055C445.758 235.646 430.715 242.52 416.864 242.52L416.812 242.546Z" fill="black"/>
<path d="M732.596 247.76C716.463 247.76 705.128 246.359 703.598 246.177C683.574 248.46 653.669 241.223 614.685 224.727C601.483 219.124 589.422 213.366 580.189 208.723C572.459 215 563.9 218.994 554.744 220.499C551.372 222.003 500.717 243.713 457.22 212.691C456.468 212.069 440.413 198.685 442.747 185.327C444.018 178.142 450.347 172.488 461.578 168.493C462.434 168.104 485.518 158.766 563.148 196.843C563.407 196.999 569.762 200.527 579.851 205.61C587.425 199.1 593.105 191.111 597.152 184.004C605.633 169.168 609.031 154.954 609.057 154.798L611.573 155.394C611.547 155.55 608.071 170.075 599.408 185.223C594.402 193.964 588.67 201.201 582.315 206.855C612.169 221.744 669.698 247.474 703.442 243.558H703.598H703.754C704.609 243.687 790.54 255.126 837.642 214.948C837.927 214.663 871.879 181.955 865.109 162.424C862.334 154.435 852.893 149.584 837.019 148.054L837.278 145.46C854.241 147.094 864.435 152.515 867.573 161.568C874.861 182.681 840.858 215.467 839.405 216.867C808.825 242.935 762.501 247.734 732.596 247.734V247.76ZM471.149 169.894C465.131 169.894 462.589 170.879 462.512 170.905C452.163 174.563 446.404 179.569 445.289 185.768C443.188 197.621 458.621 210.513 458.777 210.642C502.247 241.638 553.266 218.32 553.785 218.087L554.122 217.983C563.304 216.504 571.111 212.562 577.595 207.452C567.998 202.576 562.007 199.23 561.903 199.152C510.729 174.07 483.521 169.92 471.123 169.92L471.149 169.894Z" fill="black"/>
<path d="M721.498 188.517C712.549 183.952 713.146 178.038 713.172 177.779L713.25 177.468C714.987 172.773 731.665 166.081 735.348 164.654C750.703 154.564 758.51 144.682 758.536 135.241C758.588 125.436 749.873 119.47 749.795 119.392C729.512 109.769 700.048 131.713 699.736 131.946L698.673 132.75L697.895 131.661C696.416 129.586 695.975 127.096 696.572 124.269C700.644 105.36 752.674 74.6494 754.879 73.3525C773.009 59.372 779.623 47.233 781.957 39.5553C784.24 32.0593 782.969 27.2089 782.709 26.3788C766.058 2.46403 728.708 14.2658 728.319 14.3955L728.034 14.4474C686.586 18.0009 674.733 56.2075 673.981 58.7494C673.669 67.5424 675.485 72.9375 679.402 74.7791C687.935 78.7995 705.52 65.6749 711.59 60.2798L713.327 62.2251C712.394 63.0551 690.139 82.7161 678.312 77.1395C673.358 74.805 671.024 68.5281 671.413 58.516L671.465 58.2307C671.568 57.8157 683.266 15.7702 727.697 11.8795C730.394 11.0495 767.822 0.155546 784.966 25.056L785.122 25.3413C785.459 26.2232 792.851 47.3886 756.331 75.5313C755.657 75.9463 702.927 107.02 699.114 124.839C698.777 126.422 698.854 127.822 699.373 129.041C705.313 124.865 731.38 107.824 751.066 117.188C751.637 117.551 761.182 124.035 761.13 135.266C761.078 145.668 752.856 156.328 736.645 166.963L736.412 167.092C728.553 170.127 717.14 175.522 715.765 178.272C715.765 179.076 716.129 182.889 722.691 186.235L721.498 188.543V188.517Z" fill="black"/>
<path d="M705.443 226.828C695.302 226.828 684.771 225.038 674.448 220.421C674.059 220.239 640.444 202.887 665.63 145.901L667.99 146.939C643.842 201.538 674.215 217.412 675.538 218.061C719.449 237.67 767.77 204.495 770.494 202.576C808.077 159.207 796.12 134.592 795.99 134.333L795.886 134.047C791.243 114.568 782.503 101.21 769.923 94.4142C752.312 84.8691 732.988 91.6129 732.807 91.6907L731.925 89.2526C732.755 88.9413 752.493 82.0418 771.142 92.1317C784.37 99.2906 793.552 113.141 798.376 133.321C799.543 135.707 810.229 160.79 772.361 204.417L772.154 204.625C771.765 204.91 740.951 226.828 705.469 226.854L705.443 226.828Z" fill="black"/>
<path d="M909.566 259.847C901.215 259.847 894.134 258.991 888.324 257.824C869.805 254.063 860.208 246.515 858.807 245.347C831.392 233.546 832.533 170.646 832.637 166.314C826.256 133.451 811.031 116.565 799.385 108.187C786.754 99.0831 775.471 97.7603 775.367 97.7344L775.652 95.1665C776.145 95.2184 787.61 96.5672 800.786 106.009C812.872 114.672 828.668 132.102 835.23 165.977V166.107V166.262C835.23 166.911 833.622 231.963 859.974 243.039L860.338 243.246C860.338 243.246 869.934 251.495 888.998 255.308C906.635 258.835 936.282 259.276 977.392 241.301C981.879 239.719 1085.58 203.38 1112.73 211.369C1118.96 211.109 1207.04 207.556 1241.85 222.418C1245.14 223.015 1304.25 233.779 1324.38 226.698L1325.24 229.136C1303.97 236.606 1243.77 225.427 1241.23 224.934L1240.97 224.856C1206.31 209.942 1113.59 213.936 1112.65 213.962H1112.42L1112.21 213.911C1086.2 205.896 979.441 243.324 978.378 243.713C950.106 256.086 927.1 259.821 909.592 259.821L909.566 259.847Z" fill="black"/>
<path d="M530.522 156.25L529.251 153.994C568.313 132.258 596.688 89.7713 596.973 89.3304C609.397 69.41 613.651 51.9019 609.553 37.2988C605.144 21.5026 592.201 14.8365 592.071 14.7587C549.197 -7.80736 512.833 21.321 512.47 21.6322L510.836 19.635C511.199 19.3238 548.86 -10.9199 593.264 12.4761C593.809 12.7615 607.296 19.6869 612.043 36.5725C616.349 51.9019 612.043 70.1363 599.152 90.757C598.841 91.2238 570.154 134.229 530.522 156.276V156.25Z" fill="black"/>
</svg>
